<?xml version="1.0" encoding="UTF-8"?>
<!DOCTYPE svg PUBLIC "-//W3C//DTD SVG 1.1//EN" "http://www.w3.org/Graphics/SVG/1.1/DTD/svg11.dtd">
<svg xmlns="http://www.w3.org/2000/svg" version="1.1" width="500px" height="500px" style="shape-rendering:geometricPrecision; text-rendering:geometricPrecision; image-rendering:optimizeQuality; fill-rule:evenodd; clip-rule:evenodd" xmlns:xlink="http://www.w3.org/1999/xlink">
<g><path style="opacity:0.954" fill="#fbfdfd" d="M 258.5,175.5 C 258.167,175.5 257.833,175.5 257.5,175.5C 254.835,176.852 252.502,178.518 250.5,180.5C 249.833,180.5 249.167,180.5 248.5,180.5C 247.895,178.974 246.729,177.974 245,177.5C 240.582,180.293 236.082,182.959 231.5,185.5C 230.702,185.957 230.369,186.624 230.5,187.5C 230.5,187.833 230.5,188.167 230.5,188.5C 228.523,187.128 226.856,187.462 225.5,189.5C 224.833,190.167 224.167,190.833 223.5,191.5C 223.565,191.062 223.399,190.728 223,190.5C 219.41,193.046 215.577,195.213 211.5,197C 209.066,198.484 207.733,200.651 207.5,203.5C 206.833,203.5 206.5,203.833 206.5,204.5C 205.571,205.315 204.571,206.148 203.5,207C 203.437,212.908 203.77,218.741 204.5,224.5C 210.232,220.635 216.232,217.302 222.5,214.5C 223.151,213.909 223.818,213.243 224.5,212.5C 225.527,213.791 226.527,213.791 227.5,212.5C 227.414,213.496 227.748,214.329 228.5,215C 232.5,217.333 236.5,219.667 240.5,222C 242.689,222.322 244.689,221.822 246.5,220.5C 246.611,221.117 246.944,221.617 247.5,222C 244.815,222.845 243.149,224.678 242.5,227.5C 244.884,229.601 246.217,232.267 246.5,235.5C 244.685,234.37 242.685,233.704 240.5,233.5C 240.167,233.5 239.833,233.5 239.5,233.5C 240.391,232.739 241.058,231.739 241.5,230.5C 241.289,228.226 240.955,225.893 240.5,223.5C 235.833,220.833 231.167,218.167 226.5,215.5C 225.893,215.624 225.56,215.957 225.5,216.5C 224.833,216.5 224.167,216.5 223.5,216.5C 223.103,215.475 222.437,215.308 221.5,216C 215.75,219.626 209.916,223.126 204,226.5C 203.333,227.5 203.333,228.5 204,229.5C 205.652,230.399 207.152,231.399 208.5,232.5C 207.508,232.328 206.842,232.662 206.5,233.5C 205.788,232.261 204.788,231.761 203.5,232C 203.681,237.782 204.014,243.616 204.5,249.5C 205.478,249.977 206.311,250.643 207,251.5C 209.448,250.027 211.948,248.693 214.5,247.5C 215.167,247.5 215.5,247.833 215.5,248.5C 212.851,250.14 210.184,251.807 207.5,253.5C 207.931,254.293 208.265,255.127 208.5,256C 213.047,259.529 217.881,262.696 223,265.5C 223.483,264.552 223.649,263.552 223.5,262.5C 224.167,262.167 224.833,261.833 225.5,261.5C 225.201,263.604 225.534,265.604 226.5,267.5C 227.726,268.363 229.06,268.363 230.5,267.5C 230.5,267.833 230.5,268.167 230.5,268.5C 233.935,271.629 238.268,274.462 243.5,277C 245.265,277.64 246.932,277.473 248.5,276.5C 249.167,276.5 249.833,276.5 250.5,276.5C 252.996,277.58 255.33,278.914 257.5,280.5C 257.5,280.833 257.5,281.167 257.5,281.5C 259.313,291.185 255.313,295.019 245.5,293C 242.161,291.169 240.161,288.335 239.5,284.5C 227.996,277.58 216.329,270.914 204.5,264.5C 194.615,267.126 190.449,263.126 192,252.5C 193,251.5 194,250.5 195,249.5C 195.667,235.167 195.667,220.833 195,206.5C 191.033,202.394 190.533,197.894 193.5,193C 196.751,190.548 200.251,190.048 204,191.5C 215.736,184.714 227.57,178.047 239.5,171.5C 241.861,162.821 247.194,160.321 255.5,164C 257.563,167.756 258.563,171.589 258.5,175.5 Z"/></g>
<g><path style="opacity:0.333" fill="#dceafe" d="M 248.5,180.5 C 249.167,180.5 249.833,180.5 250.5,180.5C 250.5,184.5 250.5,188.5 250.5,192.5C 249.833,192.5 249.167,192.5 248.5,192.5C 248.5,188.5 248.5,184.5 248.5,180.5 Z"/></g>
<g><path style="opacity:0.979" fill="#fbfdfd" d="M 289.5,263.5 C 289.5,262.833 289.5,262.167 289.5,261.5C 290.478,261.189 291.145,260.522 291.5,259.5C 290.328,257.177 290.328,254.844 291.5,252.5C 291.5,252.167 291.5,251.833 291.5,251.5C 292.721,250.972 293.887,250.305 295,249.5C 295.338,243.327 295.505,237.327 295.5,231.5C 295.5,230.833 295.5,230.167 295.5,229.5C 295.67,228.178 295.337,227.011 294.5,226C 288.833,222.833 283.167,219.667 277.5,216.5C 276.081,217.005 275.415,218.005 275.5,219.5C 274.833,219.833 274.167,220.167 273.5,220.5C 273.44,219.957 273.107,219.624 272.5,219.5C 268.167,222 263.833,224.5 259.5,227C 257.606,228.101 256.939,229.434 257.5,231C 258.373,232.045 259.373,232.878 260.5,233.5C 260.5,233.833 260.5,234.167 260.5,234.5C 256.867,233.298 253.534,233.964 250.5,236.5C 249.833,236.5 249.167,236.5 248.5,236.5C 247.508,236.672 246.842,236.338 246.5,235.5C 246.217,232.267 244.884,229.601 242.5,227.5C 243.149,224.678 244.815,222.845 247.5,222C 246.944,221.617 246.611,221.117 246.5,220.5C 247.551,219.778 248.218,218.778 248.5,217.5C 249.167,217.5 249.833,217.5 250.5,217.5C 250.787,219.121 251.787,220.121 253.5,220.5C 259.148,217.864 264.148,214.53 268.5,210.5C 268.833,210.5 269.167,210.5 269.5,210.5C 271.38,210.771 272.713,210.104 273.5,208.5C 274.167,208.167 274.833,207.833 275.5,207.5C 280.272,205.28 284.938,202.78 289.5,200C 290.582,198.67 291.249,197.17 291.5,195.5C 291.5,195.167 291.5,194.833 291.5,194.5C 297.067,188.982 302.234,189.315 307,195.5C 308.198,199.809 307.198,203.476 304,206.5C 303.333,220.833 303.333,235.167 304,249.5C 307.846,253.247 308.512,257.58 306,262.5C 301.018,266.588 296.351,266.254 292,261.5C 291.292,262.381 290.458,263.047 289.5,263.5 Z M 294.5,206.5 C 295.733,212.482 295.733,218.482 294.5,224.5C 289.833,221.5 285.167,218.5 280.5,215.5C 281.262,215.089 282.262,214.923 283.5,215C 282.167,214.333 282.167,213.667 283.5,213C 287.56,211.311 291.227,209.144 294.5,206.5 Z"/></g>
<g><path style="opacity:0.612" fill="#e9f5fd" d="M 257.5,175.5 C 257.833,175.5 258.167,175.5 258.5,175.5C 269.998,181.079 280.998,187.412 291.5,194.5C 291.5,194.833 291.5,195.167 291.5,195.5C 286.279,192.638 281.112,189.638 276,186.5C 275.635,193.673 275.468,200.673 275.5,207.5C 274.833,207.833 274.167,208.167 273.5,208.5C 273.831,201.137 273.497,193.803 272.5,186.5C 265.5,190.667 258.5,194.833 251.5,199C 257.734,202.608 263.734,206.441 269.5,210.5C 269.167,210.5 268.833,210.5 268.5,210.5C 262.722,208 256.889,204.667 251,200.5C 250.601,200.728 250.435,201.062 250.5,201.5C 249.833,201.833 249.167,202.167 248.5,202.5C 248.631,201.761 248.464,201.094 248,200.5C 241.385,204.89 234.552,208.89 227.5,212.5C 226.527,213.791 225.527,213.791 224.5,212.5C 223.818,213.243 223.151,213.909 222.5,214.5C 217.913,210.194 212.579,206.861 206.5,204.5C 206.5,203.833 206.833,203.5 207.5,203.5C 212.605,205.887 217.605,208.554 222.5,211.5C 223.497,204.866 223.83,198.2 223.5,191.5C 224.167,190.833 224.833,190.167 225.5,189.5C 225.291,197.164 225.625,204.498 226.5,211.5C 233.631,207.532 240.631,203.366 247.5,199C 241.434,195.976 235.768,192.476 230.5,188.5C 230.5,188.167 230.5,187.833 230.5,187.5C 236.387,190.695 242.221,194.028 248,197.5C 248.494,195.866 248.66,194.199 248.5,192.5C 249.167,192.5 249.833,192.5 250.5,192.5C 250.34,194.199 250.506,195.866 251,197.5C 258.249,193.46 265.415,189.293 272.5,185C 267.436,181.809 262.436,178.642 257.5,175.5 Z"/></g>
<g><path style="opacity:0.329" fill="#deecff" d="M 250.5,201.5 C 250.5,206.833 250.5,212.167 250.5,217.5C 249.833,217.5 249.167,217.5 248.5,217.5C 248.5,212.5 248.5,207.5 248.5,202.5C 249.167,202.167 249.833,201.833 250.5,201.5 Z"/></g>
<g><path style="opacity:0.216" fill="#deecfb" d="M 223.5,216.5 C 224.167,216.5 224.833,216.5 225.5,216.5C 225.445,224.722 225.612,232.722 226,240.5C 230.41,237.907 234.91,235.574 239.5,233.5C 239.833,233.5 240.167,233.5 240.5,233.5C 236.063,236.559 231.397,239.392 226.5,242C 233.369,246.366 240.369,250.532 247.5,254.5C 248.496,248.537 248.829,242.537 248.5,236.5C 249.167,236.5 249.833,236.5 250.5,236.5C 250.325,242.385 250.658,248.385 251.5,254.5C 252.86,253.82 254.193,253.153 255.5,252.5C 255.5,252.833 255.5,253.167 255.5,253.5C 254.595,254.702 254.595,256.036 255.5,257.5C 254.833,257.5 254.167,257.5 253.5,257.5C 253.672,256.508 253.338,255.842 252.5,255.5C 249.752,255.402 249.086,256.402 250.5,258.5C 250.657,264.32 250.657,270.32 250.5,276.5C 249.833,276.5 249.167,276.5 248.5,276.5C 248.666,270.491 248.499,264.491 248,258.5C 242.221,261.972 236.387,265.305 230.5,268.5C 230.5,268.167 230.5,267.833 230.5,267.5C 235.768,263.524 241.434,260.024 247.5,257C 240.864,252.547 233.697,248.047 226,243.5C 225.938,249.409 225.772,255.409 225.5,261.5C 224.833,261.833 224.167,262.167 223.5,262.5C 223.829,256.463 223.496,250.463 222.5,244.5C 220.15,245.861 217.816,247.194 215.5,248.5C 215.5,247.833 215.167,247.5 214.5,247.5C 217.263,245.92 219.93,244.087 222.5,242C 217.271,238.887 211.938,236.053 206.5,233.5C 206.842,232.662 207.508,232.328 208.5,232.5C 213.52,234.762 218.353,237.428 223,240.5C 223.5,232.507 223.666,224.507 223.5,216.5 Z M 252.5,255.5 C 253.338,255.842 253.672,256.508 253.5,257.5C 251.302,257.591 250.969,256.925 252.5,255.5 Z"/></g>
<g><path style="opacity:0.62" fill="#eaf5fd" d="M 275.5,219.5 C 275.334,226.508 275.5,233.508 276,240.5C 282.446,236.695 288.946,233.028 295.5,229.5C 295.5,230.167 295.5,230.833 295.5,231.5C 289.332,234.08 283.665,237.414 278.5,241.5C 279.239,241.369 279.906,241.536 280.5,242C 279.167,243 279.167,244 280.5,245C 284.56,246.689 288.227,248.856 291.5,251.5C 291.5,251.833 291.5,252.167 291.5,252.5C 286.167,249.833 280.833,247.167 275.5,244.5C 274.833,244.167 274.167,243.833 273.5,243.5C 267.795,247.353 261.795,250.686 255.5,253.5C 255.5,253.167 255.5,252.833 255.5,252.5C 261.103,249.025 266.769,245.525 272.5,242C 268.268,239.725 264.268,237.225 260.5,234.5C 260.5,234.167 260.5,233.833 260.5,233.5C 264.559,235.948 268.725,238.281 273,240.5C 273.5,233.842 273.666,227.175 273.5,220.5C 274.167,220.167 274.833,219.833 275.5,219.5 Z M 278.5,241.5 C 278.489,244.001 277.822,244.168 276.5,242C 277.094,241.536 277.761,241.369 278.5,241.5 Z"/></g>
<g><path style="opacity:0.325" fill="#dfedfc" d="M 273.5,243.5 C 274.167,243.833 274.833,244.167 275.5,244.5C 275.5,252.833 275.5,261.167 275.5,269.5C 274.833,269.5 274.167,269.5 273.5,269.5C 273.397,261.013 273.397,252.347 273.5,243.5 Z"/></g>
<g><path style="opacity:0.537" fill="#ecf8fe" d="M 252.5,255.5 C 250.969,256.925 251.302,257.591 253.5,257.5C 254.167,257.5 254.833,257.5 255.5,257.5C 255.937,259.074 256.937,260.241 258.5,261C 263.527,263.845 268.527,266.679 273.5,269.5C 274.167,269.5 274.833,269.5 275.5,269.5C 280.167,266.833 284.833,264.167 289.5,261.5C 289.5,262.167 289.5,262.833 289.5,263.5C 278.833,269.5 268.167,275.5 257.5,281.5C 257.5,281.167 257.5,280.833 257.5,280.5C 262.326,277.196 267.326,274.03 272.5,271C 264.903,266.394 257.57,262.228 250.5,258.5C 249.086,256.402 249.752,255.402 252.5,255.5 Z"/></g>
<g><path style="opacity:0.612" fill="#f8fcfe" d="M 376.5,304.5 C 378.5,304.5 380.5,304.5 382.5,304.5C 382.5,306.833 382.5,309.167 382.5,311.5C 380.076,311.808 377.743,311.474 375.5,310.5C 376.348,308.591 376.682,306.591 376.5,304.5 Z"/></g>
<g><path style="opacity:0.954" fill="#f9fcfd" d="M 264.5,313.5 C 271.5,313.5 278.5,313.5 285.5,313.5C 285.5,315.167 285.5,316.833 285.5,318.5C 280.5,318.5 275.5,318.5 270.5,318.5C 270.5,321.167 270.5,323.833 270.5,326.5C 274.5,326.5 278.5,326.5 282.5,326.5C 282.5,328.167 282.5,329.833 282.5,331.5C 278.5,331.5 274.5,331.5 270.5,331.5C 270.5,334.167 270.5,336.833 270.5,339.5C 275.5,339.5 280.5,339.5 285.5,339.5C 285.5,341.167 285.5,342.833 285.5,344.5C 278.578,344.188 271.744,344.521 265,345.5C 264.5,334.839 264.333,324.172 264.5,313.5 Z"/></g>
<g><path style="opacity:0.975" fill="#fafdfd" d="M 371.5,313.5 C 376.833,313.5 382.167,313.5 387.5,313.5C 387.5,315.167 387.5,316.833 387.5,318.5C 385.712,318.215 384.045,318.548 382.5,319.5C 382.594,325.986 382.594,332.653 382.5,339.5C 387.464,338.457 389.131,340.124 387.5,344.5C 382.167,344.5 376.833,344.5 371.5,344.5C 371.5,342.833 371.5,341.167 371.5,339.5C 373.167,339.5 374.833,339.5 376.5,339.5C 376.5,332.5 376.5,325.5 376.5,318.5C 374.833,318.5 373.167,318.5 371.5,318.5C 371.5,316.833 371.5,315.167 371.5,313.5 Z"/></g>
<g><path style="opacity:1" fill="#fafcfd" d="M 230.5,313.5 C 232.467,313.261 234.301,313.594 236,314.5C 235.764,318.443 235.597,322.276 235.5,326C 238.482,326.498 241.482,326.665 244.5,326.5C 244.5,322.167 244.5,317.833 244.5,313.5C 246.5,313.5 248.5,313.5 250.5,313.5C 250.5,323.833 250.5,334.167 250.5,344.5C 248.533,344.261 246.699,344.594 245,345.5C 244.501,340.845 244.334,336.179 244.5,331.5C 241.428,331.183 238.428,331.516 235.5,332.5C 236.602,336.688 236.769,341.021 236,345.5C 234.301,344.594 232.467,344.261 230.5,344.5C 230.5,334.167 230.5,323.833 230.5,313.5 Z"/></g>
<g><path style="opacity:0.928" fill="#fbfdfd" d="M 299.5,313.5 C 301.924,313.192 304.257,313.526 306.5,314.5C 307.564,318.192 308.731,321.859 310,325.5C 311.013,321.78 312.18,318.114 313.5,314.5C 315.743,313.526 318.076,313.192 320.5,313.5C 320.667,324.172 320.5,334.839 320,345.5C 318.301,344.594 316.467,344.261 314.5,344.5C 314.666,339.156 314.499,333.823 314,328.5C 313.338,330.813 312.838,333.146 312.5,335.5C 310.396,335.799 308.396,335.466 306.5,334.5C 306.709,333.914 307.043,333.414 307.5,333C 306.773,331.601 306.273,330.101 306,328.5C 305.501,333.823 305.334,339.156 305.5,344.5C 303.533,344.261 301.699,344.594 300,345.5C 299.5,334.839 299.333,324.172 299.5,313.5 Z"/></g>
<g><path style="opacity:0.882" fill="#fbfdfd" d="M 334.5,313.5 C 336.833,313.5 339.167,313.5 341.5,313.5C 343.288,327.197 345.454,327.53 348,314.5C 350.041,313.577 352.208,313.244 354.5,313.5C 354.5,323.833 354.5,334.167 354.5,344.5C 352.833,344.5 351.167,344.5 349.5,344.5C 349.172,338.674 349.006,333.007 349,327.5C 348.548,330.149 347.714,332.649 346.5,335C 344.527,335.495 342.527,335.662 340.5,335.5C 340.665,338.85 340.498,342.183 340,345.5C 338.301,344.594 336.467,344.261 334.5,344.5C 334.5,334.167 334.5,323.833 334.5,313.5 Z"/></g>
<g><path style="opacity:0.945" fill="#f9fcfd" d="M 205.5,312.5 C 207.917,312.978 210.084,313.978 212,315.5C 213.401,313.808 215.234,313.141 217.5,313.5C 217.5,317.5 217.5,321.5 217.5,325.5C 215.5,325.5 213.5,325.5 211.5,325.5C 211.517,320.119 208.851,317.952 203.5,319C 198.896,325.141 198.396,331.641 202,338.5C 204.373,340.85 206.873,341.017 209.5,339C 210.889,337.043 212.389,335.21 214,333.5C 216.544,333.821 217.544,335.155 217,337.5C 210.797,347.917 203.797,348.584 196,339.5C 194,332.833 194,326.167 196,319.5C 198.086,315.555 201.253,313.221 205.5,312.5 Z"/></g>
<g><path style="opacity:0.942" fill="#fafdfd" d="M 125.5,313.5 C 132.833,313.5 140.167,313.5 147.5,313.5C 147.241,317.24 147.574,320.906 148.5,324.5C 146.604,325.466 144.604,325.799 142.5,325.5C 142.014,323.193 142.014,321.027 142.5,319C 141.552,318.517 140.552,318.351 139.5,318.5C 139.5,325.5 139.5,332.5 139.5,339.5C 141.167,339.5 142.833,339.5 144.5,339.5C 144.662,341.527 144.495,343.527 144,345.5C 138.928,344.529 133.762,344.195 128.5,344.5C 128.5,342.833 128.5,341.167 128.5,339.5C 130.167,339.5 131.833,339.5 133.5,339.5C 133.5,332.5 133.5,325.5 133.5,318.5C 132.5,318.5 131.5,318.5 130.5,318.5C 130.5,320.833 130.5,323.167 130.5,325.5C 128.833,325.5 127.167,325.5 125.5,325.5C 125.5,321.5 125.5,317.5 125.5,313.5 Z"/></g>
<g><path style="opacity:0.908" fill="#f9fdfd" d="M 160.5,313.5 C 167.5,313.5 174.5,313.5 181.5,313.5C 181.5,315.167 181.5,316.833 181.5,318.5C 176.489,318.334 171.489,318.501 166.5,319C 166.737,321.288 166.737,323.788 166.5,326.5C 170.5,326.5 174.5,326.5 178.5,326.5C 178.5,328.167 178.5,329.833 178.5,331.5C 174.5,331.5 170.5,331.5 166.5,331.5C 166.5,334.167 166.5,336.833 166.5,339.5C 171.5,339.5 176.5,339.5 181.5,339.5C 181.5,341.167 181.5,342.833 181.5,344.5C 174.5,344.5 167.5,344.5 160.5,344.5C 160.5,334.167 160.5,323.833 160.5,313.5 Z"/></g>
</svg>
